<svg width="37" height="37" fill="none" xmlns="http://www.w3.org/2000/svg"><rect width="37" height="37" rx="18.5" fill="#668663"/><path d="M25.625 16.563a1 1 0 01.773.351 1 1 0 01.352.773v1.125c0 .305-.117.575-.352.81-.21.21-.468.316-.773.316h-5.063V25a1 1 0 01-.351.773 1 1 0 01-.773.352h-1.125c-.305 0-.575-.117-.81-.352a1.052 1.052 0 01-.316-.773v-5.063h-5.062c-.305 0-.574-.105-.809-.316a1.173 1.173 0 01-.316-.808v-1.125c0-.305.105-.563.316-.774.235-.234.504-.352.809-.352h5.063V11.5c0-.305.105-.563.316-.773.234-.235.504-.352.808-.352h1.125a1 1 0 01.774.352 1 1 0 01.352.773v5.063h5.062z" fill="#fff"/></svg>