<svg width="20" height="20" fill="none" xmlns="http://www.w3.org/2000/svg"><rect width="20" height="20" rx="10" fill="#D9D9D9"/><path d="M13.938 8.844c.186 0 .343.071.472.215a.612.612 0 01.215.472v.688a.68.68 0 01-.215.494.643.643 0 01-.473.193h-3.093V14a.612.612 0 01-.215.473.612.612 0 01-.473.214H9.47a.68.68 0 01-.494-.214A.643.643 0 018.78 14v-3.094H5.687a.717.717 0 01-.494-.193.717.717 0 01-.193-.494V9.53a.64.64 0 01.193-.472.68.68 0 01.495-.215H8.78V5.75c0-.186.065-.344.194-.473a.68.68 0 01.494-.215h.687c.186 0 .344.072.473.215a.612.612 0 01.215.473v3.094h3.094z" fill="#fff"/></svg>