<svg width="14" height="12" fill="none" xmlns="http://www.w3.org/2000/svg"><path d="M13.431 9.312c.23.2.337.445.319.737a.862.862 0 01-.319.737l-.85.736c-.23.2-.523.3-.877.3-.319 0-.593-.1-.824-.3L7.054 8.207l-3.826 3.315c-.23.2-.514.292-.85.276-.337.016-.62-.076-.85-.276l-.851-.736a.961.961 0 01-.345-.76c0-.276.115-.514.345-.714l3.826-3.315L.677 2.682c-.23-.2-.354-.445-.372-.736.018-.292.142-.537.372-.737l.85-.737c.23-.2.505-.299.824-.299.354 0 .647.1.877.3l3.826 3.314L10.88.472c.23-.2.505-.299.824-.299.354 0 .647.1.877.3l.85.736c.23.2.337.445.319.737a.862.862 0 01-.319.736L9.605 5.997l3.826 3.315z" fill="#fff"/></svg>