<svg width="16" height="19" fill="none" xmlns="http://www.w3.org/2000/svg"><path d="M9.547 14.875c-.281 0-.422-.14-.422-.422V6.86c0-.28.14-.421.422-.421h.844c.28 0 .421.14.421.421v7.594c0 .281-.14.422-.421.422h-.844zm5.765-11.813c.165 0 .293.06.387.176a.468.468 0 01.176.387v.563a.575.575 0 01-.176.421.522.522 0 01-.386.141h-.563v11.813c0 .468-.164.867-.492 1.195a1.627 1.627 0 01-1.195.492H2.937c-.468 0-.867-.164-1.195-.492a1.627 1.627 0 01-.492-1.195V4.75H.687a.654.654 0 01-.421-.14.654.654 0 01-.141-.423v-.562c0-.164.047-.293.14-.387a.575.575 0 01.422-.175H3.57l1.196-2.004c.14-.211.351-.399.632-.563.282-.164.563-.246.844-.246h3.516c.187 0 .375.035.562.105.188.07.364.176.528.317.164.117.293.246.386.387l1.196 2.004h2.883zm-9.14-1.019l-.633 1.02h4.922l-.633-1.02c-.047-.07-.105-.106-.176-.106H6.348c-.07 0-.13.036-.176.106zm6.89 14.52V4.75H2.938v11.813h10.124zM5.61 14.874c-.28 0-.421-.14-.421-.422V6.86c0-.28.14-.421.421-.421h.844c.281 0 .422.14.422.421v7.594c0 .281-.14.422-.422.422H5.61z" fill="#fff"/></svg>