<svg width="17" height="17" fill="none" xmlns="http://www.w3.org/2000/svg"><path d="M15.594 4.438l-1.438 1.437c-.187.188-.364.188-.531 0l-3.469-3.469c-.187-.166-.187-.344 0-.531L11.594.437A1.446 1.446 0 0112.656 0c.417 0 .771.146 1.063.438l1.875 1.875c.291.291.437.645.437 1.062 0 .417-.146.77-.437 1.063zM8.906 3.125c.188-.188.365-.188.531 0l3.47 3.469c.187.166.187.343 0 .531l-8.188 8.188L.906 16a.717.717 0 01-.656-.219.717.717 0 01-.219-.656l.688-3.813 8.187-8.187zm-5 6.875c-.208.208-.208.417 0 .625.209.208.417.208.625 0l4.813-4.813c.208-.208.208-.416 0-.625-.209-.208-.417-.208-.625 0L3.906 10zm-1.125 3.25v-1.5H1.656l-.375 2 1 1 2-.375V13.25h-1.5z" fill="#fff"/></svg>