<svg width="29" height="26" fill="none" xmlns="http://www.w3.org/2000/svg"><path d="M27.977.125c.39 0 .585.195.585.586v3.857c0 .163-.065.31-.195.44a.528.528 0 01-.39.146.528.528 0 01-.391-.146l-.83-.83-2.393 2.343a6.926 6.926 0 011.075 3.76c0 1.953-.684 3.614-2.051 4.98-1.367 1.368-3.028 2.052-4.98 2.052a6.798 6.798 0 01-4.347-1.514 8.66 8.66 0 001.563-2.783c.749.78 1.676 1.171 2.783 1.171 1.075 0 1.986-.374 2.735-1.122.78-.782 1.172-1.71 1.172-2.784 0-1.074-.391-1.985-1.172-2.734-.75-.781-1.66-1.172-2.735-1.172-1.107 0-2.034.39-2.783 1.172a9.408 9.408 0 00-1.563-2.783c1.27-1.01 2.719-1.514 4.346-1.514a6.93 6.93 0 013.76 1.074l2.344-2.392-.83-.83c-.163-.163-.196-.359-.098-.586.098-.26.277-.391.537-.391h3.858zM2.488 5.301C3.855 3.934 5.516 3.25 7.468 3.25c1.954 0 3.614.684 4.981 2.05 1.367 1.368 2.051 3.028 2.051 4.981 0 1.66-.52 3.125-1.563 4.395-1.009 1.27-2.31 2.083-3.906 2.441v2.54h1.758c.39 0 .586.195.586.585v1.953c0 .39-.195.586-.586.586H9.031v1.758c0 .39-.195.586-.586.586H6.492c-.39 0-.586-.195-.586-.586v-1.758H4.148c-.39 0-.585-.195-.585-.586v-1.953c0-.39.195-.586.585-.586h1.758v-2.539c-1.595-.358-2.913-1.172-3.955-2.441C.942 13.406.437 11.94.437 10.28c0-1.953.684-3.613 2.051-4.98zm2.198 7.764c.78.748 1.709 1.123 2.783 1.123 1.074 0 1.985-.375 2.734-1.123.781-.782 1.172-1.71 1.172-2.784 0-1.074-.39-1.985-1.172-2.734-.749-.781-1.66-1.172-2.734-1.172s-2.002.39-2.783 1.172c-.75.749-1.123 1.66-1.123 2.734s.374 2.002 1.123 2.784z" fill="#435F40"/></svg>