<svg width="28" height="22" fill="none" xmlns="http://www.w3.org/2000/svg"><path d="M13.172 5.938a.832.832 0 01.375-.094c.125 0 .25.031.375.093l8.625 7.125v7.688c0 .219-.078.39-.235.516a.624.624 0 01-.515.234h-5.25a.767.767 0 01-.563-.234.807.807 0 01-.187-.516v-4.5a.832.832 0 00-.094-.375.613.613 0 00-.281-.281.83.83 0 00-.375-.094h-3a.767.767 0 00-.563.234c-.125.125-.187.297-.187.516v4.5c0 .188-.078.36-.235.516a.624.624 0 01-.515.234h-5.25a.767.767 0 01-.563-.234c-.125-.125-.187-.297-.187-.516v-7.688l8.625-7.124zm13.687 4.828a.636.636 0 01.188.468.45.45 0 01-.14.329l-1.173 1.453c-.125.156-.265.234-.422.234a.507.507 0 01-.375-.14L13.922 4.015a.832.832 0 00-.375-.094.832.832 0 00-.375.094L2.156 13.109a.45.45 0 01-.328.141.577.577 0 01-.469-.234L.188 11.562a.45.45 0 01-.141-.328c0-.187.062-.343.187-.468l11.86-9.75A2.296 2.296 0 0113.547.5c.531 0 1 .172 1.406.516l4.219 3.468V1.063c0-.157.047-.282.14-.375A.583.583 0 0119.735.5h2.625c.157 0 .282.063.375.188a.445.445 0 01.188.375v6.515l3.937 3.188z" fill="#484848"/></svg>