<svg width="25" height="25" fill="none" xmlns="http://www.w3.org/2000/svg"><path d="M23.906 16.563c.219.625.11 1.171-.328 1.64l-2.156 1.875a1.403 1.403 0 01-1.031.422H18c-.5 0-.906-.203-1.219-.61l-2.156-3a4.177 4.177 0 01-2.156.61c-.906 0-1.735-.25-2.485-.75a4.876 4.876 0 01-1.64-1.922c-.031-.125-.125-.203-.281-.234a.326.326 0 00-.329.094l-.562.562c-.125.156-.14.313-.047.469a6.198 6.198 0 001.969 2.25 5.677 5.677 0 002.906.984V19l1.922 3.844c.25.5.219.984-.094 1.453-.281.469-.703.703-1.265.703H1.5c-.406 0-.766-.156-1.078-.469A1.403 1.403 0 010 23.5v-3.797c0-1.969.125-3.719.375-5.25.25-1.531.656-2.953 1.219-4.265C2.187 8.844 3 7.717 4.03 6.812c1.032-.937 2.297-1.687 3.797-2.25l9.469-3.515c.312-.125.5-.031.562.281.438 1.688-.093 2.969-1.593 3.844.656.125 1.265.36 1.828.703.593.344 1.11.781 1.547 1.313.437.5.765 1.062.984 1.687l3.281 7.688zm-9.328-5.391c.219.219.485.328.797.328.313 0 .578-.11.797-.328.219-.219.328-.485.328-.797 0-.313-.11-.578-.328-.797a1.085 1.085 0 00-.797-.328c-.313 0-.578.11-.797.328a1.085 1.085 0 00-.328.797c0 .313.11.578.328.797z" fill="#484848"/></svg>