<svg width="24" height="21" fill="none" xmlns="http://www.w3.org/2000/svg"><path d="M6.563.688l.796.75a.682.682 0 01.141.421c0 .125-.047.25-.14.375L3.936 5.61l-.703.75a.686.686 0 01-.421.141.686.686 0 01-.422-.14L.187 4.11A.445.445 0 010 3.733c0-.156.063-.296.188-.421l.703-.704a.583.583 0 01.421-.187c.157 0 .282.062.375.187L2.766 3.64l3-2.954A.445.445 0 016.14.5c.156 0 .296.063.421.188zm0 7.453l.796.796a.51.51 0 01.141.376.583.583 0 01-.188.421L3.938 13.11l-.703.704a.583.583 0 01-.421.187.583.583 0 01-.422-.188L.187 11.61C.064 11.484 0 11.36 0 11.234c0-.156.063-.296.188-.421l.703-.75a.686.686 0 01.421-.141c.157 0 .282.047.375.14l1.079 1.032 3-2.953a.445.445 0 01.375-.188c.156 0 .296.063.421.188zm-5.204 8.765A2.33 2.33 0 013 16.25a2.17 2.17 0 011.594.656c.437.438.656.969.656 1.594a2.17 2.17 0 01-.656 1.594A2.17 2.17 0 013 20.75a2.33 2.33 0 01-1.64-.656A2.17 2.17 0 01.702 18.5c0-.625.219-1.156.656-1.594zM23.25 17c.219 0 .39.078.516.234a.624.624 0 01.234.516v1.5a.767.767 0 01-.234.563c-.125.125-.297.187-.516.187H9.75a.872.872 0 01-.563-.188A.872.872 0 019 19.25v-1.5c0-.219.063-.39.188-.516A.767.767 0 019.75 17h13.5zm0-15c.219 0 .39.078.516.234A.624.624 0 0124 2.75v1.5a.767.767 0 01-.234.563c-.125.125-.297.187-.516.187H9.75a.872.872 0 01-.563-.188A.872.872 0 019 4.25v-1.5c0-.219.063-.39.188-.516A.767.767 0 019.75 2h13.5zm0 7.5c.219 0 .39.078.516.234a.624.624 0 01.234.516v1.5a.767.767 0 01-.234.563c-.125.124-.297.187-.516.187H9.75a.872.872 0 01-.563-.188A.872.872 0 019 11.75v-1.5c0-.219.063-.39.188-.516A.767.767 0 019.75 9.5h13.5z" fill="#484848"/></svg>