<svg width="30" height="22" fill="none" xmlns="http://www.w3.org/2000/svg"><path d="M12.703 9.453C11.672 10.484 10.438 11 9 11c-1.438 0-2.672-.516-3.703-1.547C4.266 8.422 3.75 7.188 3.75 5.75c0-1.438.516-2.672 1.547-3.703C6.328 1.016 7.563.5 9 .5c1.438 0 2.672.516 3.703 1.547 1.031 1.031 1.547 2.265 1.547 3.703 0 1.438-.516 2.672-1.547 3.703zM12.61 12.5c1.5 0 2.766.531 3.797 1.594C17.47 15.125 18 16.39 18 17.89v1.359a2.17 2.17 0 01-.656 1.594 2.17 2.17 0 01-1.594.656H2.25a2.17 2.17 0 01-1.594-.656A2.17 2.17 0 010 19.25v-1.36c0-1.5.516-2.765 1.547-3.796C2.609 13.03 3.89 12.5 5.39 12.5h.421a7.23 7.23 0 003.188.75 7.23 7.23 0 003.188-.75h.421zm13.079-2.813C24.813 10.563 23.75 11 22.5 11s-2.313-.438-3.188-1.313C18.438 8.813 18 7.75 18 6.5c0-1.25.438-2.313 1.313-3.188C20.188 2.438 21.25 2 22.5 2c1.25 0 2.313.438 3.188 1.313C26.563 4.186 27 5.25 27 6.5c0 1.25-.438 2.313-1.313 3.188zM24.75 12.5c1.438 0 2.672.516 3.703 1.547C29.484 15.078 30 16.312 30 17.75a2.17 2.17 0 01-.656 1.594A2.17 2.17 0 0127.75 20h-8.297v-.14a.36.36 0 00.047-.141V17.89c0-1.782-.625-3.344-1.875-4.688.844-.469 1.719-.703 2.625-.703h.188c.718.25 1.406.375 2.062.375.656 0 1.344-.125 2.063-.375h.187z" fill="#484848"/></svg>