<svg width="31" height="24" fill="none" xmlns="http://www.w3.org/2000/svg"><path d="M12.047 15.75c0 1.031-.594 1.922-1.781 2.672-1.157.719-2.563 1.078-4.22 1.078-1.655 0-3.077-.36-4.265-1.078-1.156-.75-1.734-1.64-1.734-2.672v-.047c0-.25.078-.547.234-.89.156-.376.703-1.5 1.64-3.376l2.11-4.218C4.438 6.406 5.11 6 6.047 6s1.61.406 2.016 1.219a654.21 654.21 0 012.156 4.36c.906 1.78 1.437 2.843 1.594 3.187.156.343.234.656.234.937v.047zm-6-7.5L2.672 15h6.75L6.047 8.25zm24 7.5c0 .688-.266 1.328-.797 1.922-.531.562-1.266 1.015-2.203 1.36-.906.312-1.906.468-3 .468-1.656 0-3.078-.36-4.266-1.078-1.156-.75-1.734-1.64-1.734-2.672v-.047c0-.25.078-.547.234-.89.157-.376.703-1.5 1.64-3.376.157-.312.267-.546.329-.703.094-.156.219-.39.375-.703.188-.344.344-.64.469-.89s.265-.547.422-.891c.187-.344.359-.688.515-1.031C22.438 6.406 23.11 6 24.047 6s1.61.406 2.015 1.219c.625 1.25 1.344 2.703 2.157 4.36.906 1.78 1.437 2.843 1.593 3.187.157.343.235.656.235.937v.047zM20.672 15h6.75l-3.375-6.75L20.672 15zm4.125 6c.219 0 .39.063.515.188a.767.767 0 01.235.562v1.5c0 .219-.078.39-.235.516a.624.624 0 01-.515.234h-19.5a.767.767 0 01-.563-.234c-.125-.125-.187-.297-.187-.516v-1.5c0-.219.062-.406.187-.563A.872.872 0 015.297 21h8.25V7.172c-1.188-.5-1.906-1.39-2.156-2.672H5.297a.872.872 0 01-.563-.188.872.872 0 01-.187-.562v-1.5c0-.219.062-.39.187-.516a.767.767 0 01.563-.234h6.75c.781-1 1.781-1.5 3-1.5s2.219.5 3 1.5h6.75c.219 0 .39.078.515.234a.624.624 0 01.235.516v1.5a.767.767 0 01-.235.563c-.125.125-.296.187-.515.187h-6.094c-.25 1.281-.969 2.172-2.156 2.672V21h8.25z" fill="#435F40"/></svg>