<svg width="24" height="24" fill="none" xmlns="http://www.w3.org/2000/svg"><path d="M22.828 14.813c.281.124.375.343.281.656a11.635 11.635 0 01-2.578 4.406c-.187.219-.406.266-.656.14l-2.016-1.171A8.978 8.978 0 0115 20.484v2.297c0 .313-.14.5-.422.563a11.743 11.743 0 01-5.11 0C9.157 23.28 9 23.094 9 22.78v-2.297a8.977 8.977 0 01-2.86-1.64l-1.968 1.172c-.281.125-.516.078-.703-.141A11.636 11.636 0 01.89 15.469c-.094-.281 0-.5.28-.656l1.97-1.172A9.424 9.424 0 013 12c0-.563.047-1.11.14-1.64L1.173 9.187C.89 9.062.797 8.844.89 8.53a11.636 11.636 0 012.578-4.406c.187-.219.422-.25.703-.094L6.14 5.156A8.976 8.976 0 019 3.516V1.219c0-.313.14-.5.422-.563a11.957 11.957 0 015.156 0c.281.063.422.25.422.563v2.297a8.977 8.977 0 012.86 1.64l1.968-1.172c.281-.125.516-.078.703.141a11.635 11.635 0 012.578 4.406c.094.313 0 .531-.28.656l-1.97 1.172a9.64 9.64 0 010 3.282l1.97 1.171zm-13.5-.141c.75.719 1.64 1.078 2.672 1.078 1.031 0 1.906-.36 2.625-1.078.75-.75 1.125-1.64 1.125-2.672 0-1.031-.375-1.906-1.125-2.625-.719-.75-1.594-1.125-2.625-1.125s-1.922.375-2.672 1.125C8.61 10.094 8.25 10.969 8.25 12s.36 1.922 1.078 2.672z" fill="#484848"/></svg>