<svg width="18" height="6" fill="none" xmlns="http://www.w3.org/2000/svg"><path d="M10.793 1.457a2.44 2.44 0 01.738 1.793c0 .703-.246 1.3-.738 1.793A2.441 2.441 0 019 5.781c-.703 0-1.3-.246-1.793-.738a2.441 2.441 0 01-.738-1.793c0-.703.246-1.3.738-1.793A2.441 2.441 0 019 .719c.703 0 1.3.246 1.793.738zm2.602 0a2.441 2.441 0 011.793-.738c.703 0 1.3.246 1.792.738.493.492.739 1.09.739 1.793 0 .703-.246 1.3-.739 1.793a2.441 2.441 0 01-1.793.738 2.44 2.44 0 01-1.792-.738 2.441 2.441 0 01-.739-1.793c0-.703.246-1.3.739-1.793zm-12.375 0A2.441 2.441 0 012.812.719a2.44 2.44 0 011.793.738c.493.492.739 1.09.739 1.793 0 .703-.246 1.3-.739 1.793a2.441 2.441 0 01-1.793.738 2.44 2.44 0 01-1.792-.738A2.441 2.441 0 01.28 3.25c0-.703.246-1.3.739-1.793z" fill="#435F40"/></svg>