<svg width="25" height="25" fill="none" xmlns="http://www.w3.org/2000/svg"><path d="M23.531 19.563c.344.343.516.75.516 1.218 0 .469-.172.875-.516 1.219l-2.484 2.484c-.313.344-.719.516-1.219.516-.469 0-.875-.172-1.219-.516L13.125 19a3.456 3.456 0 01-.984-1.922c-.125-.75-.016-1.437.328-2.062L7.453 10H4.547l-4.5-6 3-3 6 4.5v2.906l5.015 5.016c.626-.344 1.313-.453 2.063-.328a3.46 3.46 0 011.922.984l5.484 5.485zm-7.922-8.016c-.406 0-.796.047-1.171.14l-3.844-3.843c-.031-1.907.61-3.532 1.922-4.875a6.623 6.623 0 012.953-1.735 6.868 6.868 0 013.469-.046.481.481 0 01.375.421c.062.22.015.391-.141.516l-3.469 3.516.516 3.187 3.187.516 3.516-3.469c.156-.156.328-.203.515-.14.22.03.36.156.422.374a6.691 6.691 0 01-.047 3.422 6.61 6.61 0 01-1.734 3 7.164 7.164 0 01-2.062 1.36L19.125 13c-.969-.969-2.14-1.453-3.516-1.453zm-4.875 3.844c-.218.968-.14 1.953.235 2.953l-5.813 5.765A2.937 2.937 0 013 25c-.813 0-1.516-.297-2.11-.89C.329 23.546.048 22.843.048 22c0-.813.297-1.516.89-2.11l7.125-7.171 2.672 2.672zM2.25 22.797c.219.219.484.328.797.328.312 0 .578-.11.797-.328.219-.219.328-.485.328-.797 0-.313-.11-.578-.328-.797a1.085 1.085 0 00-.797-.328c-.313 0-.578.11-.797.328a1.085 1.085 0 00-.328.797c0 .313.11.578.328.797z" fill="#484848"/></svg>