<svg width="12" height="24" fill="none" xmlns="http://www.w3.org/2000/svg"><path d="M7.875 19.5H12v3c0 .406-.156.75-.469 1.031A1.335 1.335 0 0110.5 24h-9c-.406 0-.766-.156-1.078-.469A1.403 1.403 0 010 22.5v-21C0 1.094.14.75.422.469.734.156 1.094 0 1.5 0h9c.406 0 .75.156 1.031.469.313.281.469.625.469 1.031v3H7.875c-.25 0-.375.125-.375.375v.75c0 .25.125.375.375.375H12v3H7.875c-.25 0-.375.125-.375.375v.75c0 .25.125.375.375.375H12v3H7.875c-.25 0-.375.125-.375.375v.75c0 .25.125.375.375.375H12v3H7.875c-.25 0-.375.125-.375.375v.75c0 .25.125.375.375.375z" fill="#435F40"/></svg>